<?xml version="1.0" encoding="UTF-8" standalone="no"?>
<!DOCTYPE svg PUBLIC "-//W3C//DTD SVG 1.1//EN" "http://www.w3.org/Graphics/SVG/1.1/DTD/svg11.dtd">
<svg xmlns="http://www.w3.org/2000/svg" version="1.1" viewBox="0 0 512 512">
<g stroke-width="2.00" fill="none" stroke-linecap="butt">
<path stroke="#5c8aa9" vector-effect="non-scaling-stroke" d="
  M 325.02 98.71
  C 310.58 85.20 300.34 108.67 296.91 119.62
  C 292.34 134.21 291.05 149.11 293.04 164.30
  C 293.60 168.55 296.89 168.30 300.06 169.36
  C 308.43 172.13 316.90 174.66 325.47 176.93
  C 326.18 177.12 326.85 176.49 326.71 175.77
  C 325.66 170.19 324.70 164.60 323.84 158.99
  C 321.89 146.27 323.29 132.40 329.75 121.09
  C 335.36 111.30 333.15 106.31 325.02 98.71"
/>
<path stroke="#5c8aa9" vector-effect="non-scaling-stroke" d="
  M 207.71 288.00
  C 205.36 275.47 204.04 267.72 203.73 264.75
  C 201.08 238.86 207.81 205.44 239.51 202.03
  C 257.47 200.11 273.09 205.21 289.36 210.10
  C 313.45 217.34 329.43 221.95 337.31 223.94
  C 356.36 228.74 379.50 232.23 398.66 225.67
  C 406.54 222.97 418.28 218.25 422.29 210.25"
/>
<path stroke="#5182a5" vector-effect="non-scaling-stroke" d="
  M 422.29 210.25
  C 426.79 203.34 412.25 190.50 406.30 189.13
  C 406.12 189.09 405.94 189.10 405.77 189.15
  C 401.52 190.49 398.15 193.21 394.38 194.40
  C 378.34 199.44 359.28 197.42 344.25 193.50
  C 323.05 187.96 301.56 178.37 279.25 173.78
  C 267.52 171.37 257.61 170.06 249.52 169.85
  C 209.25 168.82 175.56 197.98 171.64 238.29
  C 170.27 252.37 171.61 265.20 174.12 279.35
  C 174.19 279.73 174.47 280.04 174.84 280.14
  L 207.27 289.08
  C 207.56 289.16 207.86 288.97 207.91 288.67
  C 207.95 288.44 207.88 288.21 207.71 288.00"
/>
<path stroke="#aec6da" stroke-opacity="0.996" vector-effect="non-scaling-stroke" d="
  M 422.29 210.25
  L 421.75 209.46"
/>
<path stroke="#aec6da" stroke-opacity="0.996" vector-effect="non-scaling-stroke" d="
  M 207.04 287.50
  L 207.71 288.00"
/>
<path stroke="#6993b2" stroke-opacity="0.996" vector-effect="non-scaling-stroke" d="
  M 308.00 225.71
  C 307.81 225.69 307.63 225.71 307.47 225.77
  C 307.21 225.86 307.04 226.11 307.05 226.38
  C 307.08 228.53 307.26 230.38 307.61 231.93
  C 310.08 243.08 311.64 251.60 312.27 257.50
  C 314.28 276.45 306.13 300.28 287.51 309.11
  C 275.66 314.73 259.04 313.37 245.70 310.19
  C 231.99 306.92 218.50 302.95 205.21 298.26
  C 203.84 297.78 201.53 297.69 199.96 297.13
  C 185.29 291.86 170.21 288.26 154.74 286.33
  C 133.86 283.73 114.00 286.38 96.51 298.70
  C 94.74 299.95 93.55 302.13 92.96 305.25"
/>
<path stroke="#5182a5" vector-effect="non-scaling-stroke" d="
  M 92.96 305.25
  C 92.29 306.68 92.29 308.09 92.96 309.50"
/>
<path stroke="#5c8aa9" vector-effect="non-scaling-stroke" d="
  M 92.96 309.50
  C 93.46 314.25 100.88 322.29 105.21 323.99
  C 112.22 326.75 117.38 321.37 123.63 319.57
  C 142.78 314.03 161.27 318.58 179.91 324.41
  C 206.92 332.87 234.32 342.50 262.75 344.39
  C 296.31 346.62 328.08 326.55 339.28 294.82
  C 345.35 277.62 344.53 258.62 341.81 239.66
  C 341.36 236.49 340.19 235.98 337.44 235.04
  C 332.10 233.21 308.18 224.98 308.00 225.71"
/>
<path stroke="#aec6da" stroke-opacity="0.996" vector-effect="non-scaling-stroke" d="
  M 92.96 309.50
  L 93.21 308.75"
/>
<path stroke="#c5d7e7" stroke-opacity="0.996" vector-effect="non-scaling-stroke" d="
  M 307.85 226.49
  L 308.00 225.71"
/>
<path stroke="#bacfe3" stroke-opacity="0.996" vector-effect="non-scaling-stroke" d="
  M 93.50 305.79
  L 92.96 305.25"
/>
<path stroke="#5182a5" vector-effect="non-scaling-stroke" d="
  M 182.75 338.04
  L 182.62 338.26
  C 182.54 338.40 182.51 338.57 182.55 338.73
  C 186.92 357.93 188.94 378.19 177.86 395.79
  C 174.73 400.77 174.61 404.35 178.37 408.88
  C 183.23 414.73 187.82 422.08 196.75 418.79"
/>
<path stroke="#6993b2" stroke-opacity="0.996" vector-effect="non-scaling-stroke" d="
  M 196.75 418.79
  C 206.60 413.70 213.28 394.11 215.27 383.91
  C 217.29 373.50 217.21 360.99 216.41 349.92
  C 216.28 348.09 215.35 346.89 213.60 346.31
  C 203.84 343.09 194.05 340.09 184.24 337.30
  C 182.90 336.92 182.40 337.17 182.75 338.04"
/>
<path stroke="#bacfe3" stroke-opacity="0.996" vector-effect="non-scaling-stroke" d="
  M 196.75 418.79
  L 196.00 418.46"
/>
<path stroke="#bacfe3" stroke-opacity="0.996" vector-effect="non-scaling-stroke" d="
  M 184.00 338.21
  L 182.75 338.04"
/>
</g>
<path fill="#004675" d="
  M 473.21 256.59
  C 473.21 376.32 376.15 473.38 256.42 473.38
  C 136.69 473.38 39.63 376.32 39.63 256.59
  C 39.63 136.86 136.69 39.80 256.42 39.80
  C 376.15 39.80 473.21 136.86 473.21 256.59
  Z
  M 325.02 98.71
  C 310.58 85.20 300.34 108.67 296.91 119.62
  C 292.34 134.21 291.05 149.11 293.04 164.30
  C 293.60 168.55 296.89 168.30 300.06 169.36
  C 308.43 172.13 316.90 174.66 325.47 176.93
  C 326.18 177.12 326.85 176.49 326.71 175.77
  C 325.66 170.19 324.70 164.60 323.84 158.99
  C 321.89 146.27 323.29 132.40 329.75 121.09
  C 335.36 111.30 333.15 106.31 325.02 98.71
  Z
  M 207.71 288.00
  C 205.36 275.47 204.04 267.72 203.73 264.75
  C 201.08 238.86 207.81 205.44 239.51 202.03
  C 257.47 200.11 273.09 205.21 289.36 210.10
  C 313.45 217.34 329.43 221.95 337.31 223.94
  C 356.36 228.74 379.50 232.23 398.66 225.67
  C 406.54 222.97 418.28 218.25 422.29 210.25
  C 426.79 203.34 412.25 190.50 406.30 189.13
  C 406.12 189.09 405.94 189.10 405.77 189.15
  C 401.52 190.49 398.15 193.21 394.38 194.40
  C 378.34 199.44 359.28 197.42 344.25 193.50
  C 323.05 187.96 301.56 178.37 279.25 173.78
  C 267.52 171.37 257.61 170.06 249.52 169.85
  C 209.25 168.82 175.56 197.98 171.64 238.29
  C 170.27 252.37 171.61 265.20 174.12 279.35
  C 174.19 279.73 174.47 280.04 174.84 280.14
  L 207.27 289.08
  C 207.56 289.16 207.86 288.97 207.91 288.67
  C 207.95 288.44 207.88 288.21 207.71 288.00
  Z
  M 308.00 225.71
  C 307.81 225.69 307.63 225.71 307.47 225.77
  C 307.21 225.86 307.04 226.11 307.05 226.38
  C 307.08 228.53 307.26 230.38 307.61 231.93
  C 310.08 243.08 311.64 251.60 312.27 257.50
  C 314.28 276.45 306.13 300.28 287.51 309.11
  C 275.66 314.73 259.04 313.37 245.70 310.19
  C 231.99 306.92 218.50 302.95 205.21 298.26
  C 203.84 297.78 201.53 297.69 199.96 297.13
  C 185.29 291.86 170.21 288.26 154.74 286.33
  C 133.86 283.73 114.00 286.38 96.51 298.70
  C 94.74 299.95 93.55 302.13 92.96 305.25
  C 92.29 306.68 92.29 308.09 92.96 309.50
  C 93.46 314.25 100.88 322.29 105.21 323.99
  C 112.22 326.75 117.38 321.37 123.63 319.57
  C 142.78 314.03 161.27 318.58 179.91 324.41
  C 206.92 332.87 234.32 342.50 262.75 344.39
  C 296.31 346.62 328.08 326.55 339.28 294.82
  C 345.35 277.62 344.53 258.62 341.81 239.66
  C 341.36 236.49 340.19 235.98 337.44 235.04
  C 332.10 233.21 308.18 224.98 308.00 225.71
  Z
  M 182.75 338.04
  L 182.62 338.26
  C 182.54 338.40 182.51 338.57 182.55 338.73
  C 186.92 357.93 188.94 378.19 177.86 395.79
  C 174.73 400.77 174.61 404.35 178.37 408.88
  C 183.23 414.73 187.82 422.08 196.75 418.79
  C 206.60 413.70 213.28 394.11 215.27 383.91
  C 217.29 373.50 217.21 360.99 216.41 349.92
  C 216.28 348.09 215.35 346.89 213.60 346.31
  C 203.84 343.09 194.05 340.09 184.24 337.30
  C 182.90 336.92 182.40 337.17 182.75 338.04
  Z"
/>
<path fill="#b9cede" fill-opacity="0.996" d="
  M 296.91 119.62
  C 300.34 108.67 310.58 85.20 325.02 98.71
  C 333.15 106.31 335.36 111.30 329.75 121.09
  C 323.29 132.40 321.89 146.27 323.84 158.99
  C 324.70 164.60 325.66 170.19 326.71 175.77
  C 326.85 176.49 326.18 177.12 325.47 176.93
  C 316.90 174.66 308.43 172.13 300.06 169.36
  C 296.89 168.30 293.60 168.55 293.04 164.30
  C 291.05 149.11 292.34 134.21 296.91 119.62
  Z
  M 326.65 102.19
  C 323.15 98.85 319.90 94.22 314.22 95.58
  C 312.06 96.10 310.39 97.08 309.21 98.51
  C 294.90 115.94 290.55 144.17 294.70 165.88
  C 294.77 166.24 295.04 166.54 295.39 166.65
  L 324.28 175.62
  C 325.47 175.99 325.88 175.57 325.53 174.38
  C 321.71 161.29 321.04 147.92 323.51 134.27
  C 324.41 129.32 326.63 123.95 330.17 118.17
  C 333.93 112.02 331.29 106.64 326.65 102.19
  Z"
/>
<path fill="#a3bed6" fill-opacity="0.996" d="
  M 422.29 210.25
  L 421.75 209.46
  C 422.72 207.57 422.55 205.99 421.22 204.73
  C 420.94 204.46 420.84 204.06 420.96 203.69
  C 421.71 201.50 409.47 190.51 406.65 190.33
  C 405.50 190.26 404.19 190.66 402.70 191.52
  C 394.39 196.37 387.13 198.28 377.75 198.70
  C 360.41 199.47 340.26 194.25 324.02 188.37
  C 316.06 185.48 308.43 183.43 301.32 181.17
  C 281.21 174.78 258.35 169.35 237.75 171.48
  C 210.50 174.29 186.78 193.42 177.25 218.76
  C 170.03 237.98 171.65 258.53 174.85 278.35
  C 174.91 278.74 175.19 279.06 175.57 279.16
  C 184.23 281.52 192.94 283.88 201.70 286.24
  C 202.55 286.47 207.14 288.72 207.04 287.50
  L 207.71 288.00
  C 207.88 288.21 207.95 288.44 207.91 288.67
  C 207.86 288.97 207.56 289.16 207.27 289.08
  L 174.84 280.14
  C 174.47 280.04 174.19 279.73 174.12 279.35
  C 171.61 265.20 170.27 252.37 171.64 238.29
  C 175.56 197.98 209.25 168.82 249.52 169.85
  C 257.61 170.06 267.52 171.37 279.25 173.78
  C 301.56 178.37 323.05 187.96 344.25 193.50
  C 359.28 197.42 378.34 199.44 394.38 194.40
  C 398.15 193.21 401.52 190.49 405.77 189.15
  C 405.94 189.10 406.12 189.09 406.30 189.13
  C 412.25 190.50 426.79 203.34 422.29 210.25
  Z"
/>
<path fill="#b9cede" fill-opacity="0.996" d="
  M 421.75 209.46
  L 422.29 210.25
  C 418.28 218.25 406.54 222.97 398.66 225.67
  C 379.50 232.23 356.36 228.74 337.31 223.94
  C 329.43 221.95 313.45 217.34 289.36 210.10
  C 273.09 205.21 257.47 200.11 239.51 202.03
  C 207.81 205.44 201.08 238.86 203.73 264.75
  C 204.04 267.72 205.36 275.47 207.71 288.00
  L 207.04 287.50
  C 206.37 285.81 205.77 283.72 205.26 281.24
  C 203.11 270.89 202.01 260.73 201.98 250.76
  C 201.98 249.79 202.50 248.06 202.55 246.76
  C 202.98 234.07 207.22 222.66 215.27 212.54
  C 216.76 210.67 218.29 209.23 219.84 208.23
  C 223.10 206.12 226.54 204.32 230.15 202.82
  C 230.31 202.75 230.49 202.73 230.67 202.75
  C 231.38 202.85 231.92 202.63 232.31 202.08
  C 232.55 201.75 232.96 201.59 233.36 201.69
  C 234.95 202.08 236.32 201.76 237.49 200.75
  C 237.67 200.60 237.90 200.51 238.14 200.51
  C 245.87 200.50 253.66 199.95 261.20 201.55
  C 295.54 208.83 328.01 222.61 362.99 227.55
  C 365.52 227.90 373.25 227.95 386.16 227.70
  C 386.47 227.69 386.77 227.54 386.95 227.29
  L 387.22 226.92
  C 387.41 226.66 387.71 226.51 388.03 226.50
  L 391.83 226.49
  C 392.06 226.49 392.28 226.41 392.46 226.27
  C 393.45 225.46 394.60 225.22 395.91 225.54
  C 396.32 225.64 396.76 225.47 396.99 225.12
  C 397.50 224.33 398.25 224.03 399.24 224.24
  C 399.56 224.30 399.89 224.21 400.12 224.00
  C 400.81 223.37 401.61 223.11 402.52 223.23
  C 402.72 223.26 402.91 223.22 403.09 223.14
  L 412.70 218.42
  C 412.88 218.33 413.03 218.18 413.13 218.00
  C 413.90 216.61 415.17 216.52 416.07 215.87
  C 418.44 214.14 420.33 212.01 421.75 209.46
  Z"
/>
<path fill="#b9cede" fill-opacity="0.996" d="
  M 92.96 309.50
  L 93.21 308.75
  C 94.27 309.34 94.66 310.19 94.39 311.30
  C 94.28 311.74 94.48 312.19 94.87 312.41
  C 95.34 312.68 95.56 313.13 95.51 313.77
  C 95.49 314.06 95.59 314.34 95.79 314.54
  C 97.50 316.31 102.97 322.97 105.38 322.61
  C 105.62 322.57 105.87 322.63 106.08 322.77
  C 107.56 323.76 109.21 324.09 111.02 323.76
  C 112.38 323.51 112.79 322.47 114.50 322.75
  C 114.73 322.78 114.96 322.74 115.16 322.63
  L 119.80 319.98
  C 121.81 318.83 124.37 317.94 127.48 317.30
  C 141.33 314.46 154.96 316.14 168.51 319.95
  C 178.38 322.72 194.36 327.49 216.44 334.28
  C 235.08 340.01 251.89 343.28 271.05 343.10
  C 286.23 342.96 294.57 338.39 307.65 332.51
  C 307.83 332.43 307.99 332.29 308.10 332.11
  C 308.71 331.09 309.59 330.50 310.73 330.35
  C 311.00 330.32 311.24 330.17 311.41 329.95
  C 312.92 327.89 315.04 327.31 316.61 325.79
  C 323.00 319.62 326.80 315.71 328.03 314.04
  C 344.71 291.48 344.24 264.25 340.47 237.88
  C 340.42 237.50 340.16 237.19 339.80 237.07
  L 307.85 226.49
  L 308.00 225.71
  C 308.18 224.98 332.10 233.21 337.44 235.04
  C 340.19 235.98 341.36 236.49 341.81 239.66
  C 344.53 258.62 345.35 277.62 339.28 294.82
  C 328.08 326.55 296.31 346.62 262.75 344.39
  C 234.32 342.50 206.92 332.87 179.91 324.41
  C 161.27 318.58 142.78 314.03 123.63 319.57
  C 117.38 321.37 112.22 326.75 105.21 323.99
  C 100.88 322.29 93.46 314.25 92.96 309.50
  Z"
/>
<path fill="#d2e0f0" fill-opacity="0.992" d="
  M 308.00 225.71
  L 307.85 226.49
  C 309.54 234.93 311.09 243.18 312.52 251.25
  C 317.27 278.12 304.03 313.29 271.98 313.79
  C 258.18 314.00 244.19 311.81 230.01 307.22
  C 219.00 303.67 202.58 298.77 180.74 292.54
  C 165.37 288.15 145.80 284.79 130.06 287.07
  C 117.96 288.83 103.03 293.11 94.55 302.59
  C 94.35 302.82 94.26 303.13 94.31 303.43
  C 94.48 304.40 94.21 305.18 93.50 305.79
  L 92.96 305.25
  C 93.55 302.13 94.74 299.95 96.51 298.70
  C 114.00 286.38 133.86 283.73 154.74 286.33
  C 170.21 288.26 185.29 291.86 199.96 297.13
  C 201.53 297.69 203.84 297.78 205.21 298.26
  C 218.50 302.95 231.99 306.92 245.70 310.19
  C 259.04 313.37 275.66 314.73 287.51 309.11
  C 306.13 300.28 314.28 276.45 312.27 257.50
  C 311.64 251.60 310.08 243.08 307.61 231.93
  C 307.26 230.38 307.08 228.53 307.05 226.38
  C 307.04 226.11 307.21 225.86 307.47 225.77
  C 307.63 225.71 307.81 225.69 308.00 225.71
  Z"
/>
<path fill="#a3bed6" fill-opacity="0.996" d="
  M 92.96 305.25
  L 93.50 305.79
  C 93.08 306.69 92.98 307.68 93.21 308.75
  L 92.96 309.50
  C 92.29 308.09 92.29 306.68 92.96 305.25
  Z"
/>
<path fill="#d2e0f0" fill-opacity="0.992" d="
  M 196.75 418.79
  L 196.00 418.46
  C 198.48 417.01 200.78 414.66 202.89 411.40
  C 215.61 391.82 217.11 370.73 215.14 348.92
  C 215.10 348.55 214.86 348.23 214.52 348.09
  C 204.71 344.05 194.10 341.51 184.00 338.21
  L 182.75 338.04
  C 182.40 337.17 182.90 336.92 184.24 337.30
  C 194.05 340.09 203.84 343.09 213.60 346.31
  C 215.35 346.89 216.28 348.09 216.41 349.92
  C 217.21 360.99 217.29 373.50 215.27 383.91
  C 213.28 394.11 206.60 413.70 196.75 418.79
  Z"
/>
<path fill="#a3bed6" fill-opacity="0.996" d="
  M 182.75 338.04
  L 184.00 338.21
  C 183.44 339.74 184.21 340.73 184.47 341.98
  C 188.42 360.41 189.19 379.63 178.99 395.75
  C 175.70 400.93 175.53 405.45 180.65 409.42
  C 181.08 409.75 181.32 410.32 181.39 411.13
  C 181.41 411.37 181.52 411.59 181.69 411.76
  L 187.38 417.34
  C 187.65 417.61 188.06 417.70 188.42 417.57
  C 189.18 417.30 189.79 417.49 190.26 418.15
  C 190.40 418.36 190.62 418.50 190.86 418.55
  C 192.60 418.93 194.31 418.90 196.00 418.46
  L 196.75 418.79
  C 187.82 422.08 183.23 414.73 178.37 408.88
  C 174.61 404.35 174.73 400.77 177.86 395.79
  C 188.94 378.19 186.92 357.93 182.55 338.73
  C 182.51 338.57 182.54 338.40 182.62 338.26
  L 182.75 338.04
  Z"
/>
</svg>
