<?xml version="1.0" encoding="UTF-8" standalone="no"?>
<svg
   version="1.1"
   viewBox="0 0 512 512"
   id="svg24"
   sodipodi:docname="twosense.svg"
   inkscape:export-filename="twosense-icon-white-bg.svg"
   inkscape:export-xdpi="500"
   inkscape:export-ydpi="500"
   inkscape:version="1.3.2 (091e20e, 2023-11-25)"
   xmlns:inkscape="http://www.inkscape.org/namespaces/inkscape"
   xmlns:sodipodi="http://sodipodi.sourceforge.net/DTD/sodipodi-0.dtd"
   xmlns="http://www.w3.org/2000/svg"
   xmlns:svg="http://www.w3.org/2000/svg">
  <defs
     id="defs24" />
  <sodipodi:namedview
     id="namedview24"
     pagecolor="#505050"
     bordercolor="#eeeeee"
     borderopacity="1"
     inkscape:showpageshadow="0"
     inkscape:pageopacity="0"
     inkscape:pagecheckerboard="0"
     inkscape:deskcolor="#d1d1d1"
     showguides="true"
     inkscape:zoom="1.3037281"
     inkscape:cx="257.72244"
     inkscape:cy="233.94448"
     inkscape:window-width="1920"
     inkscape:window-height="1021"
     inkscape:window-x="0"
     inkscape:window-y="31"
     inkscape:window-maximized="1"
     inkscape:current-layer="svg24" />
  <ellipse
     style="fill:#ffffff;fill-opacity:1;stroke:none;stroke-width:1.333;stroke-linecap:round;stroke-linejoin:round"
     id="path25"
     cx="255.99998"
     cy="255.99998"
     rx="251.50185"
     ry="251.50186" />
  <path
     fill="#004675"
     d="m 512.00001,256.00001 c 0,141.38512 -114.61488,256 -256,256 C 114.61488,512.00001 0,397.38513 0,256.00001 0,114.61488 114.61488,0 256.00001,0 c 141.38512,0 256,114.61488 256,256.00001 z M 337.00743,69.564829 c -17.05171,-15.953499 -29.14378,11.76143 -33.19415,24.691921 -5.39656,17.22884 -6.91987,34.82375 -4.56995,52.76111 0.66129,5.01868 4.54634,4.72346 8.28968,5.97518 9.88385,3.271 19.88579,6.25859 30.00581,8.93916 0.83842,0.22436 1.6296,-0.51958 1.46428,-1.36981 -1.23991,-6.58923 -2.37354,-13.19027 -3.38909,-19.81493 -2.30269,-15.02062 -0.64947,-31.39924 6.97892,-44.75484 6.62466,-11.56068 4.01495,-17.453201 -5.5855,-26.427791 z M 198.48001,293.09102 c -2.77504,-14.79626 -4.33378,-23.94797 -4.69985,-27.45514 -3.12929,-30.57263 4.81794,-70.03719 42.2514,-74.06394 21.20836,-2.26726 39.65349,3.75516 58.86618,9.52959 28.44707,8.54947 47.31731,13.99327 56.62254,16.34319 22.4955,5.66816 49.82075,9.78938 72.44615,2.0429 9.30523,-3.18834 23.1686,-8.76203 27.90387,-18.20896 5.3139,-8.15978 -11.8559,-23.32211 -18.88205,-24.93989 -0.21256,-0.0472 -0.42511,-0.0354 -0.62586,0.0236 -5.01868,1.58236 -8.9982,4.79432 -13.45007,6.19955 -18.94109,5.95157 -41.44841,3.56622 -59.19683,-1.06278 -25.03436,-6.542 -50.41118,-17.86651 -76.75631,-23.28668 -13.85156,-2.84589 -25.55394,-4.39282 -35.10715,-4.64081 -47.55349,-1.21629 -87.33687,33.21777 -91.96587,80.81849 -1.61779,16.6266 -0.0354,31.77711 2.92855,48.48637 0.0827,0.44873 0.4133,0.8148 0.85022,0.93289 l 38.2955,10.55694 c 0.34245,0.0945 0.69671,-0.12989 0.75575,-0.48415 0.0472,-0.2716 -0.0354,-0.5432 -0.23617,-0.79118 z m 118.42908,-73.55617 c -0.22436,-0.0236 -0.43692,0 -0.62586,0.0709 -0.30702,0.10627 -0.50777,0.40149 -0.49596,0.72033 0.0354,2.53886 0.24798,4.72346 0.66128,6.5538 2.91674,13.16666 4.75889,23.22764 5.50284,30.19475 2.37354,22.37742 -7.25052,50.51746 -29.23825,60.94451 -13.99327,6.63647 -33.61926,5.03049 -49.37202,1.27534 -16.18968,-3.86143 -32.11956,-8.54947 -47.81328,-14.08774 -1.61778,-0.56681 -4.34559,-0.67309 -6.19955,-1.33437 -17.3233,-6.22317 -35.13077,-10.47429 -53.39877,-12.75336 -24.65649,-3.07025 -48.108488,0.059 -68.761841,14.60732 -2.09014,1.47608 -3.49537,4.05037 -4.19208,7.73467 -0.79118,1.68864 -0.79118,3.35366 0,5.01868 0.59043,5.60912 9.35246,15.10328 14.46561,17.11075 8.27788,3.2592 14.371153,-3.09386 21.751563,-5.21942 22.613588,-6.542 44.447808,-1.16906 66.459158,5.71539 31.89519,9.99013 64.25093,21.36187 97.82296,23.59371 39.62987,2.63333 77.146,-21.06666 90.3717,-58.53555 7.16786,-20.3109 6.19955,-42.74736 2.98759,-65.13658 -0.53139,-3.74335 -1.913,-4.34559 -5.16039,-5.4556 -6.30582,-2.16099 -34.55214,-11.87952 -34.7647,-11.01749 z m -147.9035,132.64672 -0.15352,0.25979 c -0.0945,0.16532 -0.12989,0.36607 -0.0827,0.555 5.16039,22.67264 7.54574,46.59699 -5.53826,67.38024 -3.69611,5.88071 -3.83782,10.10821 0.60224,15.45753 5.73901,6.90807 11.15919,15.58744 21.70432,11.70239 11.63154,-6.01061 19.51972,-29.14378 21.86965,-41.18862 2.38535,-12.29281 2.29088,-27.06545 1.34619,-40.13764 -0.15352,-2.16099 -1.25172,-3.57803 -3.31824,-4.26293 -11.52525,-3.80239 -23.08594,-7.34499 -34.67023,-10.6396 -1.58236,-0.44873 -2.1728,-0.15352 -1.75949,0.87384 z"
     id="path16"
     inkscape:label="path16"
     style="stroke-width:1" />
</svg>
